<?xml version="1.0" encoding="UTF-8" standalone="no"?>
<!DOCTYPE svg PUBLIC "-//W3C//DTD SVG 1.1//EN" "http://www.w3.org/Graphics/SVG/1.1/DTD/svg11.dtd">
<svg width="100%" height="100%" viewBox="0 0 24 24" version="1.1" xmlns="http://www.w3.org/2000/svg" xmlns:xlink="http://www.w3.org/1999/xlink" xml:space="preserve" xmlns:serif="http://www.serif.com/" style="fill-rule:evenodd;clip-rule:evenodd;stroke-linejoin:round;stroke-miterlimit:1.41421;">
    <g transform="matrix(1.00471,0,0,1.00471,1.33483,-24.6027)">
        <rect x="2.644" y="40.461" width="3.964" height="3.964"/>
    </g>
    <g transform="matrix(1.00471,0,0,1.00471,1.33483,-32.6345)">
        <rect x="2.644" y="40.461" width="3.964" height="3.964"/>
    </g>
    <g transform="matrix(1.00471,0,0,1.00471,1.33483,-40.6517)">
        <rect x="2.644" y="40.461" width="3.964" height="3.964"/>
    </g>
    <g transform="matrix(1.00471,0,0,1.00471,9.29448,-24.6027)">
        <rect x="2.644" y="40.461" width="3.964" height="3.964"/>
    </g>
    <g transform="matrix(1.00471,0,0,1.00471,9.29448,-32.6345)">
        <rect x="2.644" y="40.461" width="3.964" height="3.964"/>
    </g>
    <g transform="matrix(1.00471,0,0,1.00471,17.3603,-24.6027)">
        <rect x="2.644" y="40.461" width="3.964" height="3.964"/>
    </g>
</svg>
